<svg width="68" height="68" viewBox="0 0 68 68" fill="none" xmlns="http://www.w3.org/2000/svg">
<g filter="url(#filter0_d_452_14061)">
<circle cx="34" cy="30" r="29.5" fill="#FF9F0D" stroke="black"/>
<rect x="22.5" y="18.5" width="23" height="23" stroke="black"/>
<path d="M43.3889 29.36L29.8911 21.111C29.7774 21.0415 29.6473 21.0036 29.514 21.0011C29.3808 20.9986 29.2493 21.0317 29.1331 21.0968C29.0169 21.162 28.9202 21.257 28.8528 21.3719C28.7855 21.4869 28.75 21.6177 28.75 21.751V38.2488C28.75 38.3821 28.7855 38.5129 28.8528 38.6279C28.9202 38.7429 29.0169 38.8378 29.1331 38.903C29.2493 38.9682 29.3808 39.0012 29.514 38.9987C29.6473 38.9962 29.7774 38.9583 29.8911 38.8888L43.3889 30.6399C43.4985 30.5729 43.5891 30.4788 43.652 30.3668C43.7148 30.2547 43.7478 30.1284 43.7478 29.9999C43.7478 29.8714 43.7148 29.7451 43.652 29.633C43.5891 29.521 43.4985 29.427 43.3889 29.36Z" stroke="white" stroke-width="1.5" stroke-linecap="round" stroke-linejoin="round"/>
</g>
<defs>
<filter id="filter0_d_452_14061" x="0" y="0" width="68" height="68" filterUnits="userSpaceOnUse" color-interpolation-filters="sRGB">
<feFlood flood-opacity="0" result="BackgroundImageFix"/>
<feColorMatrix in="SourceAlpha" type="matrix" values="0 0 0 0 0 0 0 0 0 0 0 0 0 0 0 0 0 0 127 0" result="hardAlpha"/>
<feOffset dy="4"/>
<feGaussianBlur stdDeviation="2"/>
<feComposite in2="hardAlpha" operator="out"/>
<feColorMatrix type="matrix" values="0 0 0 0 0 0 0 0 0 0 0 0 0 0 0 0 0 0 0.25 0"/>
<feBlend mode="normal" in2="BackgroundImageFix" result="effect1_dropShadow_452_14061"/>
<feBlend mode="normal" in="SourceGraphic" in2="effect1_dropShadow_452_14061" result="shape"/>
</filter>
</defs>
</svg>
